<svg id="MF_Digital_GmbH" data-name="MF + Digital GmbH" xmlns="http://www.w3.org/2000/svg"
     xmlns:xlink="http://www.w3.org/1999/xlink" viewBox="0 0 451.18695 60.15311">
    <defs>
        <clipPath id="clip-path" transform="translate(-23.67521 -21.71922)">
            <rect x="23.67477" y="20.2852" width="451.18703" height="64" style="fill:none"/>
        </clipPath>
    </defs>
    <g id="marketing_factory_pille" data-name="marketing factory pille">
        <g style="clip-path:url(#clip-path)">
            <path id="pille"
                  d="M453.7252,63.99422H44.81221a21.1375,21.1375,0,0,1,0-42.275h408.913a21.1375,21.1375,0,0,1,0,42.275"
                  transform="translate(-23.67521 -21.71922)" style="fill:#fff"/>
            <path id="Y"
                  d="M448.92436,32.67241h-4.108l-1.479,2.001c-.009.013-.013.024-.022.037l-4.564,6.155-2.383-3.475-.001-.003-1.836-2.677a.66972.66972,0,0,1-.083-.155l-1.274-1.883h-5.264l1.543,2.172c.065.085.129.167.196.261l6.574,9.288v8.456h4.459v-8.756l4.053-5.58Z"
                  transform="translate(-23.67521 -21.71922)" style="fill:#0f0e09"/>
            <path id="R"
                  d="M419.83964,44.49272a8.44244,8.44244,0,0,0,4.147-2.223,5.337,5.337,0,0,0,1.34594-3.743,4.958,4.958,0,0,0-2.18-4.296,10.5052,10.5052,0,0,0-6.12695-1.539h-11.711v20.176h4.412l.002-8.262h5.496l5.636,8.262h5.007Zm-10.111-2.808v-5.534h6.079a9.62167,9.62167,0,0,1,4.113.61,2.155,2.155,0,0,1,1.145,2.072,2.318,2.318,0,0,1-1.173,2.186,8.47653,8.47653,0,0,1-3.934.666Z"
                  transform="translate(-23.67521 -21.71922)" style="fill:#0f0e09"/>
            <path id="O"
                  d="M387.76933,32.32661a12.07,12.07,0,0,1,8.401,2.956,9.61048,9.61048,0,0,1,3.282,7.46,9.64459,9.64459,0,0,1-3.3,7.478,12.049,12.049,0,0,1-8.38306,2.974,11.89477,11.89477,0,0,1-8.306-2.992,10.09772,10.09772,0,0,1-.029-14.911,11.93656,11.93656,0,0,1,8.335-2.965m-7.34094,10.29a6.4315,6.4315,0,0,0,2.008,4.945,8.62523,8.62523,0,0,0,10.731-.01,6.42418,6.42418,0,0,0,2.018-4.935,6.4371,6.4371,0,0,0-2.026-4.955,7.62513,7.62513,0,0,0-5.39-1.876,7.48446,7.48446,0,0,0-5.323,1.886,6.455,6.455,0,0,0-2.01794,4.945"
                  transform="translate(-23.67521 -21.71922)" style="fill:#0f0e09;fill-rule:evenodd"/>
            <polygon id="T"
                     points="337.042 31.149 341.423 31.149 341.423 14.547 349.302 14.547 349.302 10.972 329.164 10.972 329.164 14.547 337.042 14.547 337.042 31.149"
                     style="fill:#0f0e09"/>
            <path id="C"
                  d="M345.72917,48.11381c-.257.167-.523.324-.803.469-.232.114-.481.229-.767.344a12.5024,12.5024,0,0,1-4.72.905,7.95406,7.95406,0,0,1-5.583-1.981,6.56974,6.56974,0,0,1-2.168-5.078l.001-.012-.001-.011a6.57041,6.57041,0,0,1,2.168-5.079,7.9541,7.9541,0,0,1,5.583-1.981,12.483,12.483,0,0,1,4.72.905c.286.116.535.23.767.344.28.145.546.303.803.469a8.65013,8.65013,0,0,1,1.257.994l1.933-3.701a16.36322,16.36322,0,0,0-3.146-1.427c-.204-.062-.956-.28-.956-.28a18.21732,18.21732,0,0,0-5.052-.725,12.82621,12.82621,0,0,0-8.757,2.966,9.55922,9.55922,0,0,0-3.393,7.526,9.55914,9.55914,0,0,0,3.393,7.526,12.82607,12.82607,0,0,0,8.757,2.966,18.21587,18.21587,0,0,0,5.052-.725s.752-.218.956-.28a16.36142,16.36142,0,0,0,3.146-1.427l-1.933-3.701a8.64787,8.64787,0,0,1-1.257.994"
                  transform="translate(-23.67521 -21.71922)" style="fill:#0f0e09"/>
            <path id="A"
                  d="M315.28825,32.69142h-3.199l-9.663,20.177h3.94l2.32-5.189h9.252l2.406,5.189h4.885Zm-5.269,12.26,3.433-7.109,3.266,7.109Z"
                  transform="translate(-23.67521 -21.71922)" style="fill:#0f0e09"/>
            <polygon id="F"
                     points="264.186 27.536 264.186 25.813 264.186 22.271 273.909 22.271 273.909 19.004 264.186 19.004 264.186 14.585 278.521 14.585 278.521 10.972 259.766 10.972 259.766 31.149 264.186 31.149 264.186 27.536"
                     style="fill:#0f0e09"/>
            <path id="G"
                  d="M256.69609,42.799v2.767h6.609v2.761a20.67263,20.67263,0,0,1-3.238.994,13.91421,13.91421,0,0,1-2.879.319,8.92409,8.92409,0,0,1-5.94-2.009,6.15839,6.15839,0,0,1-2.394-4.881,6.57485,6.57485,0,0,1,2.169-5.08,7.95712,7.95712,0,0,1,5.582-1.98,12.48425,12.48425,0,0,1,4.721.905c.285.115.534.23.766.344.28.145.546.302.803.469a8.60479,8.60479,0,0,1,1.258.994l1.932-3.701a16.411,16.411,0,0,0-3.145-1.427c-.205-.062-.957-.28-.957-.28a18.21233,18.21233,0,0,0-5.052-.725,12.81867,12.81867,0,0,0-8.756,2.966,9.55405,9.55405,0,0,0-3.394,7.526,9.67278,9.67278,0,0,0,3.321,7.498,12.03576,12.03576,0,0,0,8.369,2.993,20.64406,20.64406,0,0,0,5.695-.865,24.85384,24.85384,0,0,0,4.751-1.923V42.799Z"
                  transform="translate(-23.67521 -21.71922)" style="fill:#0f0e09"/>
            <polygon id="N"
                     points="215.282 10.972 211.4 10.972 211.4 24.119 198.534 10.972 194.298 10.972 194.298 31.149 198.18 31.149 198.18 17.476 211.652 31.149 215.282 31.149 215.282 10.972"
                     style="fill:#0f0e09"/>
            <rect id="I" x="181.62955" y="10.97198" width="4.45801" height="20.177" style="fill:#0f0e09"/>
            <polygon id="T-2" data-name="T"
                     points="163.801 31.149 168.182 31.149 168.182 14.547 176.061 14.547 176.061 10.972 155.922 10.972 155.922 14.547 163.801 14.547 163.801 31.149"
                     style="fill:#0f0e09"/>
            <polygon id="E"
                     points="133.121 31.149 152.106 31.149 152.106 27.536 137.541 27.536 137.541 22.271 147.264 22.271 147.264 19.005 137.541 19.005 137.541 14.585 151.876 14.585 151.876 10.972 133.121 10.972 133.121 31.149"
                     style="fill:#0f0e09"/>
            <polygon id="K"
                     points="118.281 19.128 128.309 11.005 128.309 10.972 122.65 10.972 111.937 19.503 111.937 10.972 107.518 10.972 107.518 31.149 111.937 31.149 111.937 24.119 115.017 21.736 118.636 26.009 122.964 31.149 128.298 31.149 118.281 19.128"
                     style="fill:#0f0e09"/>
            <path id="R-2" data-name="R"
                  d="M119.23317,44.49272a8.44132,8.44132,0,0,0,4.148-2.223,5.33691,5.33691,0,0,0,1.346-3.743,4.96037,4.96037,0,0,0-2.18-4.296,10.5053,10.5053,0,0,0-6.127-1.539h-11.71v20.176h4.411l.002-8.262h5.497l5.635,8.262h5.008Zm-10.11-2.808v-5.534h6.079a9.61875,9.61875,0,0,1,4.113.61,2.155,2.155,0,0,1,1.145,2.072,2.31619,2.31619,0,0,1-1.173,2.186,8.47585,8.47585,0,0,1-3.935.666Z"
                  transform="translate(-23.67521 -21.71922)" style="fill:#0f0e09"/>
            <path id="A-2" data-name="A"
                  d="M89.93547,32.69142h-3.199l-9.662,20.177h3.938l2.322-5.189h9.251l2.407,5.189h4.885Zm-5.269,12.26,3.434-7.109,3.266,7.109Z"
                  transform="translate(-23.67521 -21.71922)" style="fill:#0f0e09"/>
            <path id="M"
                  d="M67.575,32.69151l-6.769,12.622-3.424-6.753-2.979-5.869H49.2v20.177h3.91v-14.517l7.433,14.368,7.786-14.368v12.91c0,.035-.009,1.607-.009,1.607h4.159v-20.177Z"
                  transform="translate(-23.67521 -21.71922)" style="fill:#0f0e09"/>
        </g>
    </g>
</svg>