<svg id="Layer_1" data-name="Layer 1" xmlns="http://www.w3.org/2000/svg" xmlns:xlink="http://www.w3.org/1999/xlink" viewBox="0 0 451.19 42.27"><defs><style>.cls-1{fill:none;}.cls-2{clip-path:url(#clip-path);}.cls-3{fill:#0f0e09;}.cls-4,.cls-5{fill:#fff;}.cls-5{fill-rule:evenodd;}</style><clipPath id="clip-path"><rect class="cls-1" y="-43.94" width="451.19" height="129.74"/></clipPath></defs><title>mfc-logo-nur-pille-sans-serif-2017-no-whitespace</title><g class="cls-2"><path class="cls-3" d="M430,42.27H21.14A21.14,21.14,0,0,1,21.14,0H430a21.14,21.14,0,0,1,0,42.27"/><path class="cls-4" d="M43.9,11,37.13,23.59l-3.42-6.75-3-5.87h-5.2V31.15h3.91V16.63L36.87,31l7.79-14.37V29.54s0,1.61,0,1.61H48.8V11Z"/><path class="cls-4" d="M95.56,22.77a8.44,8.44,0,0,0,4.15-2.22,5.34,5.34,0,0,0,1.35-3.74,5,5,0,0,0-2.18-4.3A10.51,10.51,0,0,0,92.74,11H81V31.15h4.41V22.89h5.5l5.64,8.26h5ZM85.45,20V14.43h6.08a9.62,9.62,0,0,1,4.11.61,2.15,2.15,0,0,1,1.14,2.07,2.32,2.32,0,0,1-1.17,2.19,8.48,8.48,0,0,1-3.93.67Z"/><path class="cls-4" d="M396.16,22.77a8.44,8.44,0,0,0,4.15-2.22,5.34,5.34,0,0,0,1.35-3.74,5,5,0,0,0-2.18-4.3A10.51,10.51,0,0,0,393.35,11H381.64V31.15h4.41V22.89h5.5l5.64,8.26h5ZM386.05,20V14.43h6.08a9.62,9.62,0,0,1,4.11.61,2.15,2.15,0,0,1,1.15,2.07,2.32,2.32,0,0,1-1.17,2.19,8.48,8.48,0,0,1-3.93.67Z"/><polygon class="cls-4" points="118.28 19.13 128.31 11.01 128.31 10.97 122.65 10.97 111.94 19.5 111.94 10.97 107.52 10.97 107.52 31.15 111.94 31.15 111.94 24.12 115.02 21.74 118.64 26.01 122.96 31.15 128.3 31.15 118.28 19.13"/><path class="cls-4" d="M66.26,11h-3.2L53.4,31.15h3.94L59.66,26h9.25l2.41,5.19H76.2ZM61,23.23l3.43-7.11,3.27,7.11Z"/><path class="cls-4" d="M291.61,11h-3.2l-9.66,20.18h3.94L285,26h9.25l2.41,5.19h4.89Zm-5.27,12.26,3.43-7.11L293,23.23Z"/><polygon class="cls-4" points="163.8 31.15 168.18 31.15 168.18 14.55 176.06 14.55 176.06 10.97 155.92 10.97 155.92 14.55 163.8 14.55 163.8 31.15"/><polygon class="cls-4" points="337.04 31.15 341.42 31.15 341.42 14.55 349.3 14.55 349.3 10.97 329.16 10.97 329.16 14.55 337.04 14.55 337.04 31.15"/><polygon class="cls-4" points="133.12 31.15 152.11 31.15 152.11 27.54 137.54 27.54 137.54 22.27 147.26 22.27 147.26 19 137.54 19 137.54 14.59 151.88 14.59 151.88 10.97 133.12 10.97 133.12 31.15"/><rect class="cls-4" x="181.63" y="10.97" width="4.46" height="20.18"/><polygon class="cls-4" points="215.28 10.97 211.4 10.97 211.4 24.12 198.53 10.97 194.3 10.97 194.3 31.15 198.18 31.15 198.18 17.48 211.65 31.15 215.28 31.15 215.28 10.97"/><path class="cls-4" d="M233,21.08v2.77h6.61v2.76a20.67,20.67,0,0,1-3.24,1,13.91,13.91,0,0,1-2.88.32,8.92,8.92,0,0,1-5.94-2A6.16,6.16,0,0,1,225.18,21,6.57,6.57,0,0,1,227.35,16a8,8,0,0,1,5.58-2,12.48,12.48,0,0,1,4.72.9c.29.11.53.23.77.34s.55.3.8.47a8.6,8.6,0,0,1,1.26,1l1.93-3.7a16.41,16.41,0,0,0-3.14-1.43l-1-.28a18.21,18.21,0,0,0-5.05-.73,12.82,12.82,0,0,0-8.76,3A9.55,9.55,0,0,0,221.11,21a9.67,9.67,0,0,0,3.32,7.5,12,12,0,0,0,8.37,3,20.64,20.64,0,0,0,5.69-.86,24.85,24.85,0,0,0,4.75-1.92V21.08Z"/><polygon class="cls-4" points="264.19 27.54 264.19 25.81 264.19 22.27 273.91 22.27 273.91 19 264.19 19 264.19 14.59 278.52 14.59 278.52 10.97 259.77 10.97 259.77 31.15 264.19 31.15 264.19 27.54"/><path class="cls-4" d="M322.05,26.39c-.26.17-.52.32-.8.47s-.48.23-.77.34a12.5,12.5,0,0,1-4.72.9,8,8,0,0,1-5.58-2A6.57,6.57,0,0,1,308,21.05h0A6.57,6.57,0,0,1,310.18,16a8,8,0,0,1,5.58-2,12.48,12.48,0,0,1,4.72.9c.29.12.53.23.77.34s.55.3.8.47a8.65,8.65,0,0,1,1.26,1l1.93-3.7a16.36,16.36,0,0,0-3.15-1.43l-1-.28a18.22,18.22,0,0,0-5.05-.72,12.83,12.83,0,0,0-8.76,3A9.56,9.56,0,0,0,303.94,21a9.56,9.56,0,0,0,3.39,7.53,12.83,12.83,0,0,0,8.76,3,18.22,18.22,0,0,0,5.05-.73l1-.28a16.36,16.36,0,0,0,3.15-1.43l-1.93-3.7a8.65,8.65,0,0,1-1.26,1"/><path class="cls-4" d="M425.25,11h-4.11l-1.48,2,0,0-4.56,6.15-2.38-3.48h0L410.86,13a.67.67,0,0,1-.08-.15L409.5,11h-5.26l1.54,2.17.2.26,6.57,9.29v8.46H417V22.37l4.05-5.58Z"/><path class="cls-5" d="M364.09,10.61a12.07,12.07,0,0,1,8.4,3A9.61,9.61,0,0,1,375.78,21a9.64,9.64,0,0,1-3.3,7.48,12,12,0,0,1-8.38,3,11.89,11.89,0,0,1-8.31-3,9.66,9.66,0,0,1-3.3-7.46,9.63,9.63,0,0,1,3.27-7.45,11.94,11.94,0,0,1,8.33-3M356.75,20.9a6.43,6.43,0,0,0,2,4.95,8.63,8.63,0,0,0,10.73,0,6.42,6.42,0,0,0,2-4.94,6.44,6.44,0,0,0-2-5,7.63,7.63,0,0,0-5.39-1.88A7.48,7.48,0,0,0,358.77,16a6.46,6.46,0,0,0-2,4.94"/></g></svg>